# xmcd
#
# Track frame offsets:
#	150
#	12894
#	35311
#	50964
#	63569
#	82619
#	97054
#	117449
#	132421
#	147209
#	165639
#	182989
#	200736
#	214349
#	236739
#	259601
#	281091
#	295491
#	311509
#	329241
#
# Disc length: 4560 seconds
#
# Revision: 1
# Processed by: cddbd v1.5.2PL0 Copyright (c) Steve Scherf et al.
# Submitted via: audiograbber 1.83.01
#
DISCID=4111ce14
DTITLE=Guy Clark - Old No 1 and Texas Cookin' [Compilation 1998]
DYEAR=1975
DGENRE=Country
TTITLE0=Old No 1 - Rita Ballou
TTITLE1=Old No 1 - LA Freeway
TTITLE2=Old No 1 - She Ain't Goin' Nowhere
TTITLE3=Old No 1 - A Nickel For The Fiddler
TTITLE4=Old No 1 - That Old Time Feeling
TTITLE5=Old No 1 - Texas-1947
TTITLE6=Old No 1 - Desperados Waiting For The Train
TTITLE7=Old No 1 - Like A Coat From The Cold
TTITLE8=Old No 1 - Instant Coffee Blues
TTITLE9=Old No 1 - Let Him Roll
TTITLE10=Texas Cookin' - Texas Cookin'
TTITLE11=Texas Cookin' - Anyhow, I Love You
TTITLE12=Texas Cookin' - Virginia's Real
TTITLE13=Texas Cookin' - It's About Time
TTITLE14=Texas Cookin' - Good To Love You Lady
TTITLE15=Texas Cookin' - Broken Hearted People
TTITLE16=Texas Cookin' - Black Haired Boy
TTITLE17=Texas Cookin' - Me I'm Feeling The Same
TTITLE18=Texas Cookin' - The Ballad Of Laverne And Captain Flint
TTITLE19=Texas Cookin' - The Last Gunfighter Ballad
EXTD=
EXTT0=
EXTT1=
EXTT2=
EXTT3=
EXTT4=
EXTT5=
EXTT6=
EXTT7=
EXTT8=
EXTT9=
EXTT10=
EXTT11=
EXTT12=
EXTT13=
EXTT14=
EXTT15=
EXTT16=
EXTT17=
EXTT18=
EXTT19=
PLAYORDER=
